<svg fill="#94a4ad" height="32" viewBox="0 0 32 32" width="32" xmlns="http://www.w3.org/2000/svg">
	<path d="m30 18a6 6 0 1 0 -10 4.46v7.54l4-1.8926 4 1.8926v-7.54a5.98 5.98 0 0 0 2-4.46zm-4 8.84-2-.9467-2 .9467v-3.19a5.8877 5.8877 0 0 0 4 0zm-2-4.84a4 4 0 1 1 4-4 4.0045 4.0045 0 0 1 -4 4z"/>
	<path d="m9 14h7v2h-7z"/>
	<path d="m9 8h10v2h-10z"/>
	<path d="m6 30a2.0021 2.0021 0 0 1 -2-2v-24a2.0021 2.0021 0 0 1 2-2h16a2.0021 2.0021 0 0 1 2 2v4h-2v-4h-16v24h10v2z"/>
	<path d="m0 0h32v32h-32z" fill="none"/>
</svg>