<svg fill="#8EA23B" xmlns="http://www.w3.org/2000/svg"  viewBox="0 0 50 50" width="16" height="16">
	<path d="M 5 4 C 4.45 4 4 4.45 4 5 L 4 13 L 13 13 L 13 4 L 5 4 Z M 15 4 L 15 13 L 24 13 L 24 4 L 15 4 Z M 26 4 L 26 13 L 35 13 L 35 4 L 26 4 Z M 37 4 L 37 13 L 46 13 L 46 5 C 46 4.45 45.55 4 45 4 L 37 4 Z M 4 15 L 4 24 L 13 24 L 13 15 L 4 15 Z M 15 15 L 15 24 L 15 26 L 15 35 L 15 37 L 15 44 L 15 45 L 15 46 L 45 46 C 45.552 46 46 45.552 46 45 L 46 15 L 45 15 L 44 15 L 37 15 L 35 15 L 26 15 L 24 15 L 15 15 Z M 17 17 L 44.127 17.01 L 44.124 44.289 L 16.85 44.252 L 17 17 Z M 4 26 L 4 35 L 13 35 L 13 26 L 4 26 Z M 4 37 L 4 45 C 4 45.55 4.45 46 5 46 L 13 46 L 13 37 L 4 37 Z" transform="matrix(1.0000000000000002, 0, 0, 1, 3.552713678800501e-15, 1.7763568394002505e-15)"/>
	<path d="M 32.652 34.209 L 35.156 31.708 C 36.393 30.513 38.457 31.102 38.875 32.77 C 39.06 33.518 38.851 34.309 38.315 34.862 L 31.999 41.179 C 31.128 42.053 29.713 42.053 28.842 41.179 L 22.526 34.862 C 21.311 33.646 21.87 31.569 23.531 31.128 C 24.301 30.919 25.124 31.141 25.687 31.705 L 28.188 34.209 L 28.188 21.615 C 28.188 19.895 30.05 18.822 31.537 19.681 C 32.229 20.081 32.652 20.818 32.652 21.615 L 32.652 34.209 Z" style="" transform="matrix(1.0000000000000002, 0, 0, 1, 3.552713678800501e-15, 1.7763568394002505e-15)"/>
</svg>